# xmcd
#
# Track frame offsets:
#	183
#	20160
#	38733
#	56560
#	70665
#	89250
#	104700
#	118450
#	128410
#	146230
#	160815
#	168955
#	179833
#	193045
#	216300
#	230398
#	244450
#	252093
#	265235
#	273758
#
# Disc length: 3930 seconds
#
# Revision: 2
# Processed by: cddbd v1.5.1PL2 Copyright (c) Steve Scherf et al.
# Submitted via: audiograbber 1.81.02
#
DISCID=300f5814
DTITLE=Mississippi John Hurt - Avalon Blues
DYEAR=1989
DGENRE=Blues
TTITLE0=Avalon Blues
TTITLE1=Richlands Women Blues
TTITLE2=Frankie And Albert
TTITLE3=Louis Collins
TTITLE4=Stackolee
TTITLE5=Coffee Blues
TTITLE6=Slidin' Delta
TTITLE7=Corrine Corrina
TTITLE8=Nobody's Dirty Business
TTITLE9=Monday Morning Blues
TTITLE10=Hey Baby Right Away
TTITLE11=Spanish Flangdang
TTITLE12=Pay Day
TTITLE13=Talking Casey Jones
TTITLE14=Let The Mermaids Flirt With Me
TTITLE15=Got The Blues That Can't Be Satisfied
TTITLE16=Stocktime
TTITLE17=Candy Man
TTITLE18=Pera-Lee
TTITLE19=Trouble I've Had All My Days
EXTD=
EXTT0=
EXTT1=
EXTT2=
EXTT3=
EXTT4=
EXTT5=
EXTT6=
EXTT7=
EXTT8=
EXTT9=
EXTT10=
EXTT11=
EXTT12=
EXTT13=
EXTT14=
EXTT15=
EXTT16=
EXTT17=
EXTT18=
EXTT19=
PLAYORDER=
